<svg width="1440" height="7" viewBox="0 0 1440 7" fill="none" xmlns="http://www.w3.org/2000/svg">
<path d="M6.21094 0.0449194C4.12556 0.0449194 2.0393 0.598902 0 1.70748V4.03296C4.38457 1.16998 8.44307 1.26641 12.8496 4.32226C17.9128 7.83349 23.3469 7.83349 28.4102 4.32226C32.9603 1.16683 37.1393 1.16683 41.6895 4.32226C46.7527 7.83349 52.1868 7.83349 57.25 4.32226C61.8002 1.16683 65.9791 1.16683 70.5293 4.32226C75.5925 7.83349 81.0266 7.83349 86.0898 4.32226C90.64 1.16683 94.8209 1.16683 99.3711 4.32226C104.435 7.83344 109.866 7.83344 114.93 4.32226C119.48 1.16679 123.66 1.16679 128.211 4.32226C133.274 7.83344 138.706 7.83344 143.77 4.32226C148.32 1.16679 152.5 1.16679 157.051 4.32226C162.114 7.83344 167.546 7.83344 172.609 4.32226C177.16 1.16679 181.34 1.16679 185.891 4.32226C190.954 7.83344 196.386 7.83344 201.449 4.32226C206 1.16679 210.18 1.16679 214.73 4.32226C219.794 7.83344 225.226 7.83344 230.289 4.32226C234.84 1.16679 239.02 1.16679 243.57 4.32226C248.634 7.83344 254.065 7.83344 259.129 4.32226C263.679 1.16679 267.86 1.16679 272.41 4.32226C277.474 7.83344 282.907 7.83344 287.971 4.32226C292.521 1.16679 296.699 1.16679 301.25 4.32226C306.313 7.83344 311.747 7.83344 316.811 4.32226C321.361 1.16679 325.539 1.16679 330.09 4.32226C335.153 7.83344 340.587 7.83344 345.65 4.32226C350.201 1.16679 354.379 1.16679 358.93 4.32226C363.993 7.83344 369.427 7.83344 374.49 4.32226C379.041 1.16679 383.219 1.16679 387.77 4.32226C392.833 7.83344 398.267 7.83344 403.33 4.32226C407.881 1.16679 412.059 1.16679 416.609 4.32226C421.673 7.83344 427.106 7.83344 432.17 4.32226C436.72 1.16679 440.899 1.16679 445.449 4.32226C450.513 7.83344 455.946 7.83344 461.01 4.32226C465.56 1.16679 469.741 1.16679 474.291 4.32226C479.354 7.83344 484.786 7.83344 489.85 4.32226C494.4 1.16679 498.58 1.16679 503.131 4.32226C508.194 7.83344 513.626 7.83344 518.689 4.32226C523.24 1.16679 527.42 1.16679 531.971 4.32226C537.034 7.83344 542.466 7.83344 547.529 4.32226C552.08 1.16679 556.26 1.16679 560.811 4.32226C565.874 7.83344 571.306 7.83344 576.369 4.32226C580.92 1.16679 585.1 1.16679 589.65 4.32226C594.714 7.83344 600.146 7.83344 605.209 4.32226C609.76 1.16679 613.94 1.16679 618.49 4.32226C623.554 7.83344 628.987 7.83344 634.051 4.32226C638.601 1.16679 642.78 1.16679 647.33 4.32226C652.394 7.83344 657.827 7.83344 662.891 4.32226C667.441 1.16679 671.619 1.16679 676.17 4.32226C681.233 7.83344 686.667 7.83344 691.73 4.32226C696.281 1.16679 700.459 1.16679 705.01 4.32226C710.073 7.83344 715.507 7.83344 720.57 4.32226C725.121 1.16679 729.299 1.16679 733.85 4.32226C738.913 7.83344 744.347 7.83344 749.41 4.32226C753.961 1.16679 758.139 1.16679 762.689 4.32226C767.753 7.83344 773.187 7.83344 778.25 4.32226C782.801 1.16679 786.979 1.16679 791.529 4.32226C796.593 7.83344 802.026 7.83344 807.09 4.32226C811.64 1.16679 815.821 1.16679 820.371 4.32226C825.435 7.83344 830.866 7.83344 835.93 4.32226C840.48 1.16679 844.66 1.16679 849.211 4.32226C854.274 7.83344 859.706 7.83344 864.77 4.32226C869.32 1.16679 873.5 1.16679 878.051 4.32226C883.114 7.83344 888.546 7.83344 893.609 4.32226C898.16 1.16679 902.34 1.16679 906.891 4.32226C911.954 7.83344 917.386 7.83344 922.449 4.32226C927 1.16679 931.18 1.16679 935.73 4.32226C940.794 7.83344 946.226 7.83344 951.289 4.32226C955.84 1.16679 960.02 1.16679 964.57 4.32226C969.634 7.83344 975.065 7.83344 980.129 4.32226C984.679 1.16679 988.86 1.16679 993.41 4.32226C998.473 7.83333 1003.9 7.83311 1008.97 4.32226C1013.52 1.16634 1017.7 1.16634 1022.25 4.32226C1027.32 7.833 1032.74 7.833 1037.81 4.32226C1042.36 1.16634 1046.54 1.16634 1051.09 4.32226C1056.16 7.833 1061.58 7.833 1066.65 4.32226C1071.2 1.16634 1075.38 1.16634 1079.93 4.32226C1085 7.833 1090.42 7.833 1095.49 4.32226C1100.04 1.16634 1104.22 1.16634 1108.77 4.32226C1113.84 7.833 1119.26 7.833 1124.33 4.32226C1128.88 1.16634 1133.06 1.16634 1137.61 4.32226C1142.68 7.833 1148.1 7.833 1153.17 4.32226C1157.72 1.16634 1161.9 1.16634 1166.45 4.32226C1171.52 7.833 1176.94 7.833 1182.01 4.32226C1186.56 1.16634 1190.74 1.16634 1195.29 4.32226C1200.36 7.833 1205.78 7.833 1210.85 4.32226C1215.4 1.16634 1219.58 1.16634 1224.13 4.32226C1229.2 7.833 1234.62 7.833 1239.69 4.32226C1244.24 1.16634 1248.42 1.16634 1252.97 4.32226C1258.04 7.833 1263.46 7.833 1268.53 4.32226C1273.08 1.16634 1277.26 1.16634 1281.81 4.32226C1286.88 7.833 1292.3 7.833 1297.37 4.32226C1301.92 1.16634 1306.1 1.16634 1310.65 4.32226C1315.72 7.833 1321.14 7.833 1326.21 4.32226C1330.76 1.16634 1334.94 1.16634 1339.49 4.32226C1344.56 7.833 1349.98 7.833 1355.05 4.32226C1359.6 1.16634 1363.78 1.16634 1368.33 4.32226C1373.4 7.833 1378.82 7.833 1383.89 4.32226C1388.44 1.16634 1392.62 1.16634 1397.17 4.32226C1402.24 7.833 1407.66 7.833 1412.73 4.32226C1417.28 1.16634 1421.46 1.16634 1426.01 4.32226C1430.56 7.47272 1435.39 7.79602 1440 5.29217V2.96687C1435.61 5.83051 1431.56 5.73413 1427.15 2.67773C1422.08 -0.833004 1416.66 -0.833004 1411.59 2.67773C1407.04 5.83365 1402.86 5.83365 1398.31 2.67773C1393.24 -0.833004 1387.82 -0.833004 1382.75 2.67773C1378.2 5.83365 1374.02 5.83365 1369.47 2.67773C1364.4 -0.833004 1358.98 -0.833004 1353.91 2.67773C1349.36 5.83365 1345.18 5.83365 1340.63 2.67773C1335.56 -0.833004 1330.14 -0.833004 1325.07 2.67773C1320.52 5.83365 1316.34 5.83365 1311.79 2.67773C1306.72 -0.833004 1301.3 -0.833004 1296.23 2.67773C1291.68 5.83365 1287.5 5.83365 1282.95 2.67773C1277.88 -0.833004 1272.46 -0.833004 1267.39 2.67773C1262.84 5.83365 1258.66 5.83365 1254.11 2.67773C1249.04 -0.833004 1243.62 -0.833004 1238.55 2.67773C1234 5.83365 1229.82 5.83365 1225.27 2.67773C1220.2 -0.833004 1214.78 -0.833004 1209.71 2.67773C1205.16 5.83365 1200.98 5.83365 1196.43 2.67773C1191.36 -0.833004 1185.94 -0.833004 1180.87 2.67773C1176.32 5.83365 1172.14 5.83365 1167.59 2.67773C1162.52 -0.833004 1157.1 -0.833004 1152.03 2.67773C1147.48 5.83365 1143.3 5.83365 1138.75 2.67773C1133.68 -0.833004 1128.26 -0.833004 1123.19 2.67773C1118.64 5.83365 1114.46 5.83365 1109.91 2.67773C1104.84 -0.833004 1099.42 -0.833004 1094.35 2.67773C1089.8 5.83365 1085.62 5.83365 1081.07 2.67773C1076 -0.833004 1070.58 -0.833004 1065.51 2.67773C1060.96 5.83365 1056.78 5.83365 1052.23 2.67773C1047.16 -0.833004 1041.74 -0.833004 1036.67 2.67773C1032.12 5.83365 1027.94 5.83365 1023.39 2.67773C1018.32 -0.833004 1012.9 -0.833004 1007.83 2.67773C1003.28 5.83354 999.101 5.83332 994.551 2.67773C989.487 -0.833451 984.054 -0.833451 978.99 2.67773C974.44 5.83321 970.26 5.83321 965.709 2.67773C960.646 -0.833451 955.214 -0.833451 950.15 2.67773C945.6 5.83321 941.42 5.83321 936.869 2.67773C931.806 -0.833451 926.374 -0.833451 921.311 2.67773C916.76 5.83321 912.58 5.83321 908.029 2.67773C902.966 -0.833451 897.534 -0.833451 892.471 2.67773C887.92 5.83321 883.74 5.83321 879.189 2.67773C874.126 -0.833451 868.694 -0.833451 863.631 2.67773C859.08 5.83321 854.9 5.83321 850.35 2.67773C845.286 -0.833451 839.854 -0.833451 834.791 2.67773C830.24 5.83321 826.06 5.83321 821.51 2.67773C816.446 -0.833451 811.013 -0.833451 805.949 2.67773C801.399 5.83321 797.22 5.83321 792.67 2.67773C787.606 -0.833451 782.173 -0.833451 777.109 2.67773C772.559 5.83321 768.381 5.83321 763.83 2.67773C758.767 -0.833451 753.333 -0.833451 748.27 2.67773C743.719 5.83321 739.541 5.83321 734.99 2.67773C729.927 -0.833451 724.493 -0.833451 719.43 2.67773C714.879 5.83321 710.701 5.83321 706.15 2.67773C701.087 -0.833451 695.653 -0.833451 690.59 2.67773C686.039 5.83321 681.861 5.83321 677.311 2.67773C672.247 -0.833451 666.813 -0.833451 661.75 2.67773C657.199 5.83321 653.021 5.83321 648.471 2.67773C643.407 -0.833451 637.974 -0.833451 632.91 2.67773C628.36 5.83321 624.179 5.83321 619.629 2.67773C614.565 -0.833451 609.134 -0.833451 604.07 2.67773C599.52 5.83321 595.34 5.83321 590.789 2.67773C585.726 -0.833451 580.294 -0.833451 575.23 2.67773C570.68 5.83321 566.5 5.83321 561.949 2.67773C556.886 -0.833451 551.454 -0.833451 546.391 2.67773C541.84 5.83321 537.66 5.83321 533.109 2.67773C528.046 -0.833451 522.614 -0.833451 517.551 2.67773C513 5.83321 508.82 5.83321 504.27 2.67773C499.206 -0.833451 493.774 -0.833451 488.711 2.67773C484.16 5.83321 479.98 5.83321 475.43 2.67773C470.366 -0.833451 464.935 -0.833451 459.871 2.67773C455.321 5.83321 451.14 5.83321 446.59 2.67773C441.526 -0.833451 436.093 -0.833451 431.029 2.67773C426.479 5.83321 422.301 5.83321 417.75 2.67773C412.687 -0.833451 407.253 -0.833451 402.189 2.67773C397.639 5.83321 393.461 5.83321 388.91 2.67773C383.847 -0.833451 378.413 -0.833451 373.35 2.67773C368.799 5.83321 364.621 5.83321 360.07 2.67773C355.007 -0.833451 349.573 -0.833451 344.51 2.67773C339.959 5.83321 335.781 5.83321 331.23 2.67773C326.167 -0.833451 320.733 -0.833451 315.67 2.67773C311.119 5.83321 306.941 5.83321 302.391 2.67773C297.327 -0.833451 291.894 -0.833451 286.83 2.67773C282.28 5.83321 278.101 5.83321 273.551 2.67773C268.487 -0.833451 263.054 -0.833451 257.99 2.67773C253.44 5.83321 249.26 5.83321 244.709 2.67773C239.646 -0.833451 234.214 -0.833451 229.15 2.67773C224.6 5.83321 220.42 5.83321 215.869 2.67773C210.806 -0.833451 205.374 -0.833451 200.311 2.67773C195.76 5.83321 191.58 5.83321 187.029 2.67773C181.966 -0.833451 176.534 -0.833451 171.471 2.67773C166.92 5.83321 162.74 5.83321 158.189 2.67773C153.126 -0.833451 147.694 -0.833451 142.631 2.67773C138.08 5.83321 133.9 5.83321 129.35 2.67773C124.286 -0.833451 118.854 -0.833451 113.791 2.67773C109.241 5.83321 105.06 5.83321 100.51 2.67773C95.4465 -0.833495 90.0124 -0.833495 84.9492 2.67773C80.3991 5.83316 76.2201 5.83316 71.6699 2.67773C66.6067 -0.833495 61.1726 -0.833495 56.1094 2.67773C51.5592 5.83316 47.3802 5.83316 42.8301 2.67773C37.7669 -0.833495 32.3328 -0.833495 27.2695 2.67773C22.7194 5.83316 18.5404 5.83316 13.9902 2.67773C11.4586 0.922116 8.83506 0.0449194 6.21094 0.0449194Z" fill="currentColor"/>
</svg>
