<svg width="201" height="7" viewBox="0 0 201 7" fill="none" xmlns="http://www.w3.org/2000/svg">
<path d="M1 3.5C5.7381 0.166667 10.4762 0.166667 15.2143 3.5C19.9524 6.83333 24.6905 6.83333 29.4286 3.5C34.1667 0.166667 38.9048 0.166667 43.6429 3.5C48.381 6.83333 53.119 6.83333 57.8571 3.5C62.5952 0.166667 67.3333 0.166667 72.0714 3.5C76.8095 6.83333 81.5476 6.83333 86.2857 3.5C91.0238 0.166667 95.7619 0.166667 100.5 3.5C105.238 6.83333 109.976 6.83333 114.714 3.5C119.452 0.166667 124.19 0.166667 128.929 3.5C133.667 6.83333 138.405 6.83333 143.143 3.5C147.881 0.166667 152.619 0.166667 157.357 3.5C162.095 6.83333 166.833 6.83333 171.571 3.5C176.31 0.166667 181.048 0.166667 185.786 3.5C190.524 6.83333 195.262 6.83333 200 3.5" stroke="currentColor" stroke-width="2"/>
</svg>
