<svg width="170" height="7" viewBox="0 0 170 7" fill="none" xmlns="http://www.w3.org/2000/svg"><path d="M1 3.5C5 0.166667 9 0.166667 13 3.5C17 6.83333 21 6.83333 25 3.5C29 0.166667 33 0.166667 37 3.5C41 6.83333 45 6.83333 49 3.5C53 0.166667 57 0.166667 61 3.5C65 6.83333 69 6.83333 73 3.5C77 0.166667 81 0.166667 85 3.5C89 6.83333 93 6.83333 97 3.5C101 0.166667 105 0.166667 109 3.5C113 6.83333 117 6.83333 121 3.5C125 0.166667 129 0.166667 133 3.5C137 6.83333 141 6.83333 145 3.5C149 0.166667 153 0.166667 157 3.5C161 6.83333 165 6.83333 169 3.5" stroke="currentColor" stroke-width="2"/></svg>
